<?xml version="1.0" encoding="UTF-8"?>
<svg width="24px" height="24px" viewBox="0 0 24 24" version="1.1" xmlns="http://www.w3.org/2000/svg" xmlns:xlink="http://www.w3.org/1999/xlink">
    <!-- Generator: Sketch 53 (72520) - https://sketchapp.com -->
    <title>Icon / Auth / Next</title>
    <desc>Created with Sketch.</desc>
    <g id="Icon-/-Auth-/-Next" stroke="none" stroke-width="1" fill="none" fill-rule="evenodd">
        <path d="M19.3339599,12.2698507 C19.3145485,12.0386218 19.2276957,11.76512 19.1052576,11.6164155 L14.9232758,6.38892001 C14.5155671,5.9249392 13.880672,5.88332496 13.4529943,6.22548454 C13.0252818,6.56764064 12.9474969,7.26812317 13.2896878,7.69579041 L16.1103323,11.2243405 L5.04549632,11.2243405 C4.46810355,11.2243405 4,11.692458 4,12.2698507 C4,12.8472784 4.46810355,13.3153471 5.04549632,13.3153471 L16.1103323,13.3153471 L13.2896878,16.8438971 C12.9474969,17.27154 13.0384202,17.9562007 13.4529943,18.3141786 C13.903429,18.7031381 14.5811546,18.5784801 14.9232758,18.1507675 L19.1052576,12.9232859 C19.2822357,12.7066591 19.3308687,12.5476043 19.3339599,12.2698507 Z" id="Shape" fill="#CD4E45" transform="translate(11.666980, 12.274056) scale(1, -1) translate(-11.666980, -12.274056) "></path>
    </g>
</svg>